<mxfile>
    <diagram id="iMxcmPr24rwtnFYZ4upU" name="Page-1">
        <mxGraphModel dx="1073" dy="1029" grid="1" gridSize="10" guides="1" tooltips="1" connect="1" arrows="1" fold="1" page="1" pageScale="1" pageWidth="827" pageHeight="1169" math="0" shadow="0">
            <root>
                <mxCell id="0"/>
                <mxCell id="1" parent="0"/>
                <mxCell id="239" style="edgeStyle=orthogonalEdgeStyle;rounded=0;orthogonalLoop=1;jettySize=auto;html=1;entryX=0;entryY=0.5;entryDx=0;entryDy=0;" parent="1" source="217" target="257" edge="1">
                    <mxGeometry relative="1" as="geometry">
                        <Array as="points">
                            <mxPoint x="590" y="921"/>
                            <mxPoint x="590" y="933"/>
                        </Array>
                    </mxGeometry>
                </mxCell>
                <mxCell id="2" value="Publication" style="swimlane;fontStyle=0;childLayout=stackLayout;horizontal=1;startSize=40;fillColor=#1ba1e2;horizontalStack=0;resizeParent=1;resizeParentMax=0;resizeLast=0;collapsible=1;marginBottom=0;fontColor=#ffffff;strokeColor=#FFFFFF;" parent="1" vertex="1">
                    <mxGeometry x="310" y="248" width="120" height="712" as="geometry"/>
                </mxCell>
                <mxCell id="3" value="id" style="text;strokeColor=none;fillColor=none;align=left;verticalAlign=top;spacingLeft=4;spacingRight=4;overflow=hidden;rotatable=0;points=[[0,0.5],[1,0.5]];portConstraint=eastwest;fontColor=#FF9999;fontStyle=1" parent="2" vertex="1">
                    <mxGeometry y="40" width="120" height="26" as="geometry"/>
                </mxCell>
                <mxCell id="5" value="thematic               1" style="text;fillColor=#60a917;align=left;verticalAlign=top;spacingLeft=4;spacingRight=4;overflow=hidden;rotatable=0;points=[[0,0.5],[1,0.5]];portConstraint=eastwest;fontColor=#ffffff;strokeColor=#FFFFFF;" parent="2" vertex="1">
                    <mxGeometry y="66" width="120" height="24" as="geometry"/>
                </mxCell>
                <mxCell id="19" value="localisation           1" style="text;fillColor=#60a917;align=left;verticalAlign=top;spacingLeft=4;spacingRight=4;overflow=hidden;rotatable=0;points=[[0,0.5],[1,0.5]];portConstraint=eastwest;fontColor=#ffffff;strokeColor=#FFFFFF;" parent="2" vertex="1">
                    <mxGeometry y="90" width="120" height="26" as="geometry"/>
                </mxCell>
                <mxCell id="4" value="type                      1" style="text;fillColor=#60a917;align=left;verticalAlign=top;spacingLeft=4;spacingRight=4;overflow=hidden;rotatable=0;points=[[0,0.5],[1,0.5]];portConstraint=eastwest;fontColor=#ffffff;strokeColor=#FFFFFF;" parent="2" vertex="1">
                    <mxGeometry y="116" width="120" height="24" as="geometry"/>
                </mxCell>
                <mxCell id="13" value="language              1" style="text;fillColor=#60a917;align=left;verticalAlign=top;spacingLeft=4;spacingRight=4;overflow=hidden;rotatable=0;points=[[0,0.5],[1,0.5]];portConstraint=eastwest;fontColor=#ffffff;strokeColor=#FFFFFF;" parent="2" vertex="1">
                    <mxGeometry y="140" width="120" height="26" as="geometry"/>
                </mxCell>
                <mxCell id="6" value="title" style="text;strokeColor=none;fillColor=none;align=left;verticalAlign=top;spacingLeft=4;spacingRight=4;overflow=hidden;rotatable=0;points=[[0,0.5],[1,0.5]];portConstraint=eastwest;" parent="2" vertex="1">
                    <mxGeometry y="166" width="120" height="26" as="geometry"/>
                </mxCell>
                <mxCell id="8" value="mention" style="text;strokeColor=none;fillColor=none;align=left;verticalAlign=top;spacingLeft=4;spacingRight=4;overflow=hidden;rotatable=0;points=[[0,0.5],[1,0.5]];portConstraint=eastwest;" parent="2" vertex="1">
                    <mxGeometry y="192" width="120" height="26" as="geometry"/>
                </mxCell>
                <mxCell id="242" value="editors                N" style="text;fillColor=#d80073;align=left;verticalAlign=top;spacingLeft=4;spacingRight=4;overflow=hidden;rotatable=0;points=[[0,0.5],[1,0.5]];portConstraint=eastwest;fontColor=#ffffff;strokeColor=#FFFFFF;" vertex="1" parent="2">
                    <mxGeometry y="218" width="120" height="26" as="geometry"/>
                </mxCell>
                <mxCell id="245" value="keywordRefs      N" style="text;fillColor=#d80073;align=left;verticalAlign=top;spacingLeft=4;spacingRight=4;overflow=hidden;rotatable=0;points=[[0,0.5],[1,0.5]];portConstraint=eastwest;fontColor=#ffffff;strokeColor=#FFFFFF;" vertex="1" parent="2">
                    <mxGeometry y="244" width="120" height="26" as="geometry"/>
                </mxCell>
                <mxCell id="9" value="publication_date" style="text;strokeColor=none;fillColor=none;align=left;verticalAlign=top;spacingLeft=4;spacingRight=4;overflow=hidden;rotatable=0;points=[[0,0.5],[1,0.5]];portConstraint=eastwest;" parent="2" vertex="1">
                    <mxGeometry y="270" width="120" height="26" as="geometry"/>
                </mxCell>
                <mxCell id="163" value="bookcollection      1" style="text;fillColor=#60a917;align=left;verticalAlign=top;spacingLeft=4;spacingRight=4;overflow=hidden;rotatable=0;points=[[0,0.5],[1,0.5]];portConstraint=eastwest;fontColor=#ffffff;strokeColor=#FFFFFF;" parent="2" vertex="1">
                    <mxGeometry y="296" width="120" height="26" as="geometry"/>
                </mxCell>
                <mxCell id="10" value="paging" style="text;strokeColor=none;fillColor=none;align=left;verticalAlign=top;spacingLeft=4;spacingRight=4;overflow=hidden;rotatable=0;points=[[0,0.5],[1,0.5]];portConstraint=eastwest;" parent="2" vertex="1">
                    <mxGeometry y="322" width="120" height="26" as="geometry"/>
                </mxCell>
                <mxCell id="11" value="volume_number" style="text;strokeColor=none;fillColor=none;align=left;verticalAlign=top;spacingLeft=4;spacingRight=4;overflow=hidden;rotatable=0;points=[[0,0.5],[1,0.5]];portConstraint=eastwest;" parent="2" vertex="1">
                    <mxGeometry y="348" width="120" height="26" as="geometry"/>
                </mxCell>
                <mxCell id="14" value="summary" style="text;strokeColor=none;fillColor=none;align=left;verticalAlign=top;spacingLeft=4;spacingRight=4;overflow=hidden;rotatable=0;points=[[0,0.5],[1,0.5]];portConstraint=eastwest;" parent="2" vertex="1">
                    <mxGeometry y="374" width="120" height="26" as="geometry"/>
                </mxCell>
                <mxCell id="15" value="issn_isbn" style="text;strokeColor=none;fillColor=none;align=left;verticalAlign=top;spacingLeft=4;spacingRight=4;overflow=hidden;rotatable=0;points=[[0,0.5],[1,0.5]];portConstraint=eastwest;" parent="2" vertex="1">
                    <mxGeometry y="400" width="120" height="26" as="geometry"/>
                </mxCell>
                <mxCell id="16" value="support" style="text;strokeColor=none;fillColor=none;align=left;verticalAlign=top;spacingLeft=4;spacingRight=4;overflow=hidden;rotatable=0;points=[[0,0.5],[1,0.5]];portConstraint=eastwest;" parent="2" vertex="1">
                    <mxGeometry y="426" width="120" height="26" as="geometry"/>
                </mxCell>
                <mxCell id="238" value="keywordGeos       N" style="text;fillColor=#d80073;align=left;verticalAlign=top;spacingLeft=4;spacingRight=4;overflow=hidden;rotatable=0;points=[[0,0.5],[1,0.5]];portConstraint=eastwest;fontColor=#ffffff;strokeColor=#FFFFFF;" parent="2" vertex="1">
                    <mxGeometry y="452" width="120" height="26" as="geometry"/>
                </mxCell>
                <mxCell id="17" value="source_address" style="text;strokeColor=none;fillColor=none;align=left;verticalAlign=top;spacingLeft=4;spacingRight=4;overflow=hidden;rotatable=0;points=[[0,0.5],[1,0.5]];portConstraint=eastwest;" parent="2" vertex="1">
                    <mxGeometry y="478" width="120" height="26" as="geometry"/>
                </mxCell>
                <mxCell id="244" value="borrows                N" style="text;fillColor=#d80073;align=left;verticalAlign=top;spacingLeft=4;spacingRight=4;overflow=hidden;rotatable=0;points=[[0,0.5],[1,0.5]];portConstraint=eastwest;fontColor=#ffffff;strokeColor=#FFFFFF;" vertex="1" parent="2">
                    <mxGeometry y="504" width="120" height="26" as="geometry"/>
                </mxCell>
                <mxCell id="20" value="cote" style="text;strokeColor=none;fillColor=none;align=left;verticalAlign=top;spacingLeft=4;spacingRight=4;overflow=hidden;rotatable=0;points=[[0,0.5],[1,0.5]];portConstraint=eastwest;" parent="2" vertex="1">
                    <mxGeometry y="530" width="120" height="26" as="geometry"/>
                </mxCell>
                <mxCell id="22" value="access" style="text;strokeColor=none;fillColor=none;align=left;verticalAlign=top;spacingLeft=4;spacingRight=4;overflow=hidden;rotatable=0;points=[[0,0.5],[1,0.5]];portConstraint=eastwest;" parent="2" vertex="1">
                    <mxGeometry y="556" width="120" height="26" as="geometry"/>
                </mxCell>
                <mxCell id="237" value="image" style="text;strokeColor=none;fillColor=none;align=left;verticalAlign=top;spacingLeft=4;spacingRight=4;overflow=hidden;rotatable=0;points=[[0,0.5],[1,0.5]];portConstraint=eastwest;" parent="2" vertex="1">
                    <mxGeometry y="582" width="120" height="26" as="geometry"/>
                </mxCell>
                <mxCell id="18" value="url" style="text;strokeColor=none;fillColor=none;align=left;verticalAlign=top;spacingLeft=4;spacingRight=4;overflow=hidden;rotatable=0;points=[[0,0.5],[1,0.5]];portConstraint=eastwest;" parent="2" vertex="1">
                    <mxGeometry y="608" width="120" height="26" as="geometry"/>
                </mxCell>
                <mxCell id="243" value="authors                 N" style="text;fillColor=#d80073;align=left;verticalAlign=top;spacingLeft=4;spacingRight=4;overflow=hidden;rotatable=0;points=[[0,0.5],[1,0.5]];portConstraint=eastwest;fontColor=#ffffff;strokeColor=#FFFFFF;" vertex="1" parent="2">
                    <mxGeometry y="634" width="120" height="26" as="geometry"/>
                </mxCell>
                <mxCell id="217" value="user                      1" style="text;fillColor=#60a917;align=left;verticalAlign=top;spacingLeft=4;spacingRight=4;overflow=hidden;rotatable=0;points=[[0,0.5],[1,0.5]];portConstraint=eastwest;fontColor=#ffffff;strokeColor=#FFFFFF;" parent="2" vertex="1">
                    <mxGeometry y="660" width="120" height="26" as="geometry"/>
                </mxCell>
                <mxCell id="241" value="update-date" style="text;strokeColor=none;fillColor=none;align=left;verticalAlign=top;spacingLeft=4;spacingRight=4;overflow=hidden;rotatable=0;points=[[0,0.5],[1,0.5]];portConstraint=eastwest;" vertex="1" parent="2">
                    <mxGeometry y="686" width="120" height="26" as="geometry"/>
                </mxCell>
                <mxCell id="23" value="publication_type" style="swimlane;fontStyle=0;childLayout=stackLayout;horizontal=1;startSize=50;fillColor=#1ba1e2;horizontalStack=0;resizeParent=1;resizeParentMax=0;resizeLast=0;collapsible=1;marginBottom=0;fontColor=#ffffff;strokeColor=#FFFFFF;" parent="1" vertex="1">
                    <mxGeometry x="7.27" y="60" width="122.73" height="154" as="geometry"/>
                </mxCell>
                <mxCell id="24" value="id" style="text;strokeColor=none;fillColor=none;align=left;verticalAlign=top;spacingLeft=4;spacingRight=4;overflow=hidden;rotatable=0;points=[[0,0.5],[1,0.5]];portConstraint=eastwest;fontColor=#FF9999;fontStyle=1" parent="23" vertex="1">
                    <mxGeometry y="50" width="122.73" height="26" as="geometry"/>
                </mxCell>
                <mxCell id="25" value="name" style="text;strokeColor=none;fillColor=none;align=left;verticalAlign=top;spacingLeft=4;spacingRight=4;overflow=hidden;rotatable=0;points=[[0,0.5],[1,0.5]];portConstraint=eastwest;" parent="23" vertex="1">
                    <mxGeometry y="76" width="122.73" height="26" as="geometry"/>
                </mxCell>
                <mxCell id="26" value="description" style="text;strokeColor=none;fillColor=none;align=left;verticalAlign=top;spacingLeft=4;spacingRight=4;overflow=hidden;rotatable=0;points=[[0,0.5],[1,0.5]];portConstraint=eastwest;" parent="23" vertex="1">
                    <mxGeometry y="102" width="122.73" height="26" as="geometry"/>
                </mxCell>
                <mxCell id="250" value="publications           N" style="text;fillColor=#d80073;align=left;verticalAlign=top;spacingLeft=4;spacingRight=4;overflow=hidden;rotatable=0;points=[[0,0.5],[1,0.5]];portConstraint=eastwest;fontColor=#ffffff;strokeColor=#FFFFFF;" vertex="1" parent="23">
                    <mxGeometry y="128" width="122.73" height="26" as="geometry"/>
                </mxCell>
                <mxCell id="27" value="thematic" style="swimlane;fontStyle=0;childLayout=stackLayout;horizontal=1;startSize=40;fillColor=#1ba1e2;horizontalStack=0;resizeParent=1;resizeParentMax=0;resizeLast=0;collapsible=1;marginBottom=0;fontColor=#ffffff;strokeColor=#FFFFFF;" parent="1" vertex="1">
                    <mxGeometry x="450" y="52" width="120" height="170" as="geometry"/>
                </mxCell>
                <mxCell id="28" value="id" style="text;strokeColor=none;fillColor=none;align=left;verticalAlign=top;spacingLeft=4;spacingRight=4;overflow=hidden;rotatable=0;points=[[0,0.5],[1,0.5]];portConstraint=eastwest;fontColor=#FF9999;fontStyle=1" parent="27" vertex="1">
                    <mxGeometry y="40" width="120" height="26" as="geometry"/>
                </mxCell>
                <mxCell id="29" value="name" style="text;strokeColor=none;fillColor=none;align=left;verticalAlign=top;spacingLeft=4;spacingRight=4;overflow=hidden;rotatable=0;points=[[0,0.5],[1,0.5]];portConstraint=eastwest;" parent="27" vertex="1">
                    <mxGeometry y="66" width="120" height="26" as="geometry"/>
                </mxCell>
                <mxCell id="30" value="description" style="text;strokeColor=none;fillColor=none;align=left;verticalAlign=top;spacingLeft=4;spacingRight=4;overflow=hidden;rotatable=0;points=[[0,0.5],[1,0.5]];portConstraint=eastwest;" parent="27" vertex="1">
                    <mxGeometry y="92" width="120" height="26" as="geometry"/>
                </mxCell>
                <mxCell id="31" value="thesaurus           0" style="text;fillColor=#60a917;align=left;verticalAlign=top;spacingLeft=4;spacingRight=4;overflow=hidden;rotatable=0;points=[[0,0.5],[1,0.5]];portConstraint=eastwest;fontColor=#ffffff;strokeColor=#FFFFFF;" parent="27" vertex="1">
                    <mxGeometry y="118" width="120" height="26" as="geometry"/>
                </mxCell>
                <mxCell id="254" value="publications       N" style="text;fillColor=#d80073;align=left;verticalAlign=top;spacingLeft=4;spacingRight=4;overflow=hidden;rotatable=0;points=[[0,0.5],[1,0.5]];portConstraint=eastwest;fontColor=#ffffff;strokeColor=#FFFFFF;" vertex="1" parent="27">
                    <mxGeometry y="144" width="120" height="26" as="geometry"/>
                </mxCell>
                <mxCell id="32" value="author" style="swimlane;fontStyle=0;childLayout=stackLayout;horizontal=1;startSize=26;fillColor=#1ba1e2;horizontalStack=0;resizeParent=1;resizeParentMax=0;resizeLast=0;collapsible=1;marginBottom=0;fontColor=#ffffff;strokeColor=#FFFFFF;" parent="1" vertex="1">
                    <mxGeometry x="1.8099999999999998" y="770" width="96.37" height="130" as="geometry"/>
                </mxCell>
                <mxCell id="33" value="id" style="text;strokeColor=none;fillColor=none;align=left;verticalAlign=top;spacingLeft=4;spacingRight=4;overflow=hidden;rotatable=0;points=[[0,0.5],[1,0.5]];portConstraint=eastwest;fontColor=#FF9999;fontStyle=1" parent="32" vertex="1">
                    <mxGeometry y="26" width="96.37" height="26" as="geometry"/>
                </mxCell>
                <mxCell id="34" value="name" style="text;strokeColor=none;fillColor=none;align=left;verticalAlign=top;spacingLeft=4;spacingRight=4;overflow=hidden;rotatable=0;points=[[0,0.5],[1,0.5]];portConstraint=eastwest;" parent="32" vertex="1">
                    <mxGeometry y="52" width="96.37" height="26" as="geometry"/>
                </mxCell>
                <mxCell id="35" value="address" style="text;strokeColor=none;fillColor=none;align=left;verticalAlign=top;spacingLeft=4;spacingRight=4;overflow=hidden;rotatable=0;points=[[0,0.5],[1,0.5]];portConstraint=eastwest;" parent="32" vertex="1">
                    <mxGeometry y="78" width="96.37" height="26" as="geometry"/>
                </mxCell>
                <mxCell id="249" value="publications   N" style="text;fillColor=#d80073;align=left;verticalAlign=top;spacingLeft=4;spacingRight=4;overflow=hidden;rotatable=0;points=[[0,0.5],[1,0.5]];portConstraint=eastwest;fontColor=#ffffff;strokeColor=#FFFFFF;" vertex="1" parent="32">
                    <mxGeometry y="104" width="96.37" height="26" as="geometry"/>
                </mxCell>
                <mxCell id="36" value="editor" style="swimlane;fontStyle=0;childLayout=stackLayout;horizontal=1;startSize=26;fillColor=#1ba1e2;horizontalStack=0;resizeParent=1;resizeParentMax=0;resizeLast=0;collapsible=1;marginBottom=0;fontColor=#ffffff;strokeColor=#FFFFFF;" parent="1" vertex="1">
                    <mxGeometry x="705" y="330" width="107.73" height="156" as="geometry"/>
                </mxCell>
                <mxCell id="38" value="id" style="text;strokeColor=none;fillColor=none;align=left;verticalAlign=top;spacingLeft=4;spacingRight=4;overflow=hidden;rotatable=0;points=[[0,0.5],[1,0.5]];portConstraint=eastwest;fontColor=#FF9999;fontStyle=1" parent="36" vertex="1">
                    <mxGeometry y="26" width="107.73" height="26" as="geometry"/>
                </mxCell>
                <mxCell id="39" value="firstname" style="text;strokeColor=none;fillColor=none;align=left;verticalAlign=top;spacingLeft=4;spacingRight=4;overflow=hidden;rotatable=0;points=[[0,0.5],[1,0.5]];portConstraint=eastwest;" parent="36" vertex="1">
                    <mxGeometry y="52" width="107.73" height="26" as="geometry"/>
                </mxCell>
                <mxCell id="40" value="lastname" style="text;strokeColor=none;fillColor=none;align=left;verticalAlign=top;spacingLeft=4;spacingRight=4;overflow=hidden;rotatable=0;points=[[0,0.5],[1,0.5]];portConstraint=eastwest;" parent="36" vertex="1">
                    <mxGeometry y="78" width="107.73" height="26" as="geometry"/>
                </mxCell>
                <mxCell id="37" value="address" style="text;strokeColor=none;fillColor=none;align=left;verticalAlign=top;spacingLeft=4;spacingRight=4;overflow=hidden;rotatable=0;points=[[0,0.5],[1,0.5]];portConstraint=eastwest;" parent="36" vertex="1">
                    <mxGeometry y="104" width="107.73" height="26" as="geometry"/>
                </mxCell>
                <mxCell id="261" value="publications    N         N" style="text;fillColor=#d80073;align=left;verticalAlign=top;spacingLeft=4;spacingRight=4;overflow=hidden;rotatable=0;points=[[0,0.5],[1,0.5]];portConstraint=eastwest;fontColor=#ffffff;strokeColor=#FFFFFF;" vertex="1" parent="36">
                    <mxGeometry y="130" width="107.73" height="26" as="geometry"/>
                </mxCell>
                <mxCell id="41" value="thesaurus" style="swimlane;fontStyle=0;childLayout=stackLayout;horizontal=1;startSize=26;fillColor=#1ba1e2;horizontalStack=0;resizeParent=1;resizeParentMax=0;resizeLast=0;collapsible=1;marginBottom=0;fontColor=#ffffff;strokeColor=#FFFFFF;" parent="1" vertex="1">
                    <mxGeometry x="702.73" y="100" width="110" height="130" as="geometry"/>
                </mxCell>
                <mxCell id="42" value="id" style="text;strokeColor=none;fillColor=none;align=left;verticalAlign=top;spacingLeft=4;spacingRight=4;overflow=hidden;rotatable=0;points=[[0,0.5],[1,0.5]];portConstraint=eastwest;fontColor=#FF9999;fontStyle=1" parent="41" vertex="1">
                    <mxGeometry y="26" width="110" height="26" as="geometry"/>
                </mxCell>
                <mxCell id="215" value="ancestor_id" style="text;strokeColor=none;fillColor=none;align=left;verticalAlign=top;spacingLeft=4;spacingRight=4;overflow=hidden;rotatable=0;points=[[0,0.5],[1,0.5]];portConstraint=eastwest;" parent="41" vertex="1">
                    <mxGeometry y="52" width="110" height="26" as="geometry"/>
                </mxCell>
                <mxCell id="44" value="theme" style="text;strokeColor=none;fillColor=none;align=left;verticalAlign=top;spacingLeft=4;spacingRight=4;overflow=hidden;rotatable=0;points=[[0,0.5],[1,0.5]];portConstraint=eastwest;" parent="41" vertex="1">
                    <mxGeometry y="78" width="110" height="26" as="geometry"/>
                </mxCell>
                <mxCell id="255" value="thematics           N" style="text;fillColor=#d80073;align=left;verticalAlign=top;spacingLeft=4;spacingRight=4;overflow=hidden;rotatable=0;points=[[0,0.5],[1,0.5]];portConstraint=eastwest;fontColor=#ffffff;strokeColor=#FFFFFF;" vertex="1" parent="41">
                    <mxGeometry y="104" width="110" height="26" as="geometry"/>
                </mxCell>
                <mxCell id="45" value="user" style="swimlane;fontStyle=0;childLayout=stackLayout;horizontal=1;startSize=26;fillColor=#1ba1e2;horizontalStack=0;resizeParent=1;resizeParentMax=0;resizeLast=0;collapsible=1;marginBottom=0;fontColor=#ffffff;strokeColor=#FFFFFF;" parent="1" vertex="1">
                    <mxGeometry x="710" y="660" width="102.73" height="286" as="geometry"/>
                </mxCell>
                <mxCell id="46" value="id" style="text;strokeColor=none;fillColor=none;align=left;verticalAlign=top;spacingLeft=4;spacingRight=4;overflow=hidden;rotatable=0;points=[[0,0.5],[1,0.5]];portConstraint=eastwest;fontColor=#FF9999;fontStyle=1" parent="45" vertex="1">
                    <mxGeometry y="26" width="102.73" height="26" as="geometry"/>
                </mxCell>
                <mxCell id="47" value="firstname" style="text;strokeColor=none;fillColor=none;align=left;verticalAlign=top;spacingLeft=4;spacingRight=4;overflow=hidden;rotatable=0;points=[[0,0.5],[1,0.5]];portConstraint=eastwest;" parent="45" vertex="1">
                    <mxGeometry y="52" width="102.73" height="26" as="geometry"/>
                </mxCell>
                <mxCell id="48" value="lastname" style="text;strokeColor=none;fillColor=none;align=left;verticalAlign=top;spacingLeft=4;spacingRight=4;overflow=hidden;rotatable=0;points=[[0,0.5],[1,0.5]];portConstraint=eastwest;" parent="45" vertex="1">
                    <mxGeometry y="78" width="102.73" height="26" as="geometry"/>
                </mxCell>
                <mxCell id="256" value="borrows          N" style="text;fillColor=#d80073;align=left;verticalAlign=top;spacingLeft=4;spacingRight=4;overflow=hidden;rotatable=0;points=[[0,0.5],[1,0.5]];portConstraint=eastwest;fontColor=#ffffff;strokeColor=#FFFFFF;" vertex="1" parent="45">
                    <mxGeometry y="104" width="102.73" height="26" as="geometry"/>
                </mxCell>
                <mxCell id="49" value="email" style="text;strokeColor=none;fillColor=none;align=left;verticalAlign=top;spacingLeft=4;spacingRight=4;overflow=hidden;rotatable=0;points=[[0,0.5],[1,0.5]];portConstraint=eastwest;" parent="45" vertex="1">
                    <mxGeometry y="130" width="102.73" height="26" as="geometry"/>
                </mxCell>
                <mxCell id="50" value="phone" style="text;strokeColor=none;fillColor=none;align=left;verticalAlign=top;spacingLeft=4;spacingRight=4;overflow=hidden;rotatable=0;points=[[0,0.5],[1,0.5]];portConstraint=eastwest;" parent="45" vertex="1">
                    <mxGeometry y="156" width="102.73" height="26" as="geometry"/>
                </mxCell>
                <mxCell id="258" value="roles" style="text;strokeColor=none;fillColor=none;align=left;verticalAlign=top;spacingLeft=4;spacingRight=4;overflow=hidden;rotatable=0;points=[[0,0.5],[1,0.5]];portConstraint=eastwest;" vertex="1" parent="45">
                    <mxGeometry y="182" width="102.73" height="26" as="geometry"/>
                </mxCell>
                <mxCell id="51" value="address" style="text;strokeColor=none;fillColor=none;align=left;verticalAlign=top;spacingLeft=4;spacingRight=4;overflow=hidden;rotatable=0;points=[[0,0.5],[1,0.5]];portConstraint=eastwest;" parent="45" vertex="1">
                    <mxGeometry y="208" width="102.73" height="26" as="geometry"/>
                </mxCell>
                <mxCell id="53" value="newsletter" style="text;strokeColor=none;fillColor=none;align=left;verticalAlign=top;spacingLeft=4;spacingRight=4;overflow=hidden;rotatable=0;points=[[0,0.5],[1,0.5]];portConstraint=eastwest;" parent="45" vertex="1">
                    <mxGeometry y="234" width="102.73" height="26" as="geometry"/>
                </mxCell>
                <mxCell id="257" value="publications    N         N" style="text;fillColor=#d80073;align=left;verticalAlign=top;spacingLeft=4;spacingRight=4;overflow=hidden;rotatable=0;points=[[0,0.5],[1,0.5]];portConstraint=eastwest;fontColor=#ffffff;strokeColor=#FFFFFF;" vertex="1" parent="45">
                    <mxGeometry y="260" width="102.73" height="26" as="geometry"/>
                </mxCell>
                <mxCell id="55" value="keywordRef" style="swimlane;fontStyle=0;childLayout=stackLayout;horizontal=1;startSize=26;fillColor=#1ba1e2;horizontalStack=0;resizeParent=1;resizeParentMax=0;resizeLast=0;collapsible=1;marginBottom=0;fontColor=#ffffff;strokeColor=#FFFFFF;" parent="1" vertex="1">
                    <mxGeometry x="3.629999999999999" y="280" width="92.73" height="104" as="geometry"/>
                </mxCell>
                <mxCell id="220" value="id" style="text;strokeColor=none;fillColor=none;align=left;verticalAlign=top;spacingLeft=4;spacingRight=4;overflow=hidden;rotatable=0;points=[[0,0.5],[1,0.5]];portConstraint=eastwest;fontColor=#FF9999;fontStyle=1" parent="55" vertex="1">
                    <mxGeometry y="26" width="92.73" height="26" as="geometry"/>
                </mxCell>
                <mxCell id="57" value="name" style="text;strokeColor=none;fillColor=none;align=left;verticalAlign=top;spacingLeft=4;spacingRight=4;overflow=hidden;rotatable=0;points=[[0,0.5],[1,0.5]];portConstraint=eastwest;" parent="55" vertex="1">
                    <mxGeometry y="52" width="92.73" height="26" as="geometry"/>
                </mxCell>
                <mxCell id="248" value="publications   N" style="text;fillColor=#d80073;align=left;verticalAlign=top;spacingLeft=4;spacingRight=4;overflow=hidden;rotatable=0;points=[[0,0.5],[1,0.5]];portConstraint=eastwest;fontColor=#ffffff;strokeColor=#FFFFFF;" vertex="1" parent="55">
                    <mxGeometry y="78" width="92.73" height="26" as="geometry"/>
                </mxCell>
                <mxCell id="61" value="localisation" style="swimlane;fontStyle=0;childLayout=stackLayout;horizontal=1;startSize=26;fillColor=#1ba1e2;horizontalStack=0;resizeParent=1;resizeParentMax=0;resizeLast=0;collapsible=1;marginBottom=0;fontColor=#ffffff;strokeColor=#FFFFFF;" parent="1" vertex="1">
                    <mxGeometry x="232.27" y="52" width="112.73" height="104" as="geometry"/>
                </mxCell>
                <mxCell id="62" value="id" style="text;strokeColor=none;fillColor=none;align=left;verticalAlign=top;spacingLeft=4;spacingRight=4;overflow=hidden;rotatable=0;points=[[0,0.5],[1,0.5]];portConstraint=eastwest;fontColor=#FF6666;" parent="61" vertex="1">
                    <mxGeometry y="26" width="112.73" height="26" as="geometry"/>
                </mxCell>
                <mxCell id="63" value="name" style="text;strokeColor=none;fillColor=none;align=left;verticalAlign=top;spacingLeft=4;spacingRight=4;overflow=hidden;rotatable=0;points=[[0,0.5],[1,0.5]];portConstraint=eastwest;" parent="61" vertex="1">
                    <mxGeometry y="52" width="112.73" height="26" as="geometry"/>
                </mxCell>
                <mxCell id="252" value="publications       N" style="text;fillColor=#d80073;align=left;verticalAlign=top;spacingLeft=4;spacingRight=4;overflow=hidden;rotatable=0;points=[[0,0.5],[1,0.5]];portConstraint=eastwest;fontColor=#ffffff;strokeColor=#FFFFFF;" vertex="1" parent="61">
                    <mxGeometry y="78" width="112.73" height="26" as="geometry"/>
                </mxCell>
                <mxCell id="64" value="bookcollection" style="swimlane;fontStyle=0;childLayout=stackLayout;horizontal=1;startSize=26;fillColor=#1ba1e2;horizontalStack=0;resizeParent=1;resizeParentMax=0;resizeLast=0;collapsible=1;marginBottom=0;fontColor=#ffffff;strokeColor=#FFFFFF;" parent="1" vertex="1">
                    <mxGeometry x="710" y="520" width="105.23" height="100" as="geometry"/>
                </mxCell>
                <mxCell id="65" value="id" style="text;strokeColor=none;fillColor=none;align=left;verticalAlign=top;spacingLeft=4;spacingRight=4;overflow=hidden;rotatable=0;points=[[0,0.5],[1,0.5]];portConstraint=eastwest;fontColor=#FF9999;fontStyle=1" parent="64" vertex="1">
                    <mxGeometry y="26" width="105.23" height="22" as="geometry"/>
                </mxCell>
                <mxCell id="66" value="name" style="text;strokeColor=none;fillColor=none;align=left;verticalAlign=top;spacingLeft=4;spacingRight=4;overflow=hidden;rotatable=0;points=[[0,0.5],[1,0.5]];portConstraint=eastwest;" parent="64" vertex="1">
                    <mxGeometry y="48" width="105.23" height="26" as="geometry"/>
                </mxCell>
                <mxCell id="259" value="publications    N         N" style="text;fillColor=#d80073;align=left;verticalAlign=top;spacingLeft=4;spacingRight=4;overflow=hidden;rotatable=0;points=[[0,0.5],[1,0.5]];portConstraint=eastwest;fontColor=#ffffff;strokeColor=#FFFFFF;" vertex="1" parent="64">
                    <mxGeometry y="74" width="105.23" height="26" as="geometry"/>
                </mxCell>
                <mxCell id="67" value="keywordGeo" style="swimlane;fontStyle=0;childLayout=stackLayout;horizontal=1;startSize=31;fillColor=#1ba1e2;horizontalStack=0;resizeParent=1;resizeParentMax=0;resizeLast=0;collapsible=1;marginBottom=0;fontColor=#ffffff;strokeColor=#FFFFFF;" parent="1" vertex="1">
                    <mxGeometry x="3.6299999999999994" y="530" width="92.73" height="109" as="geometry"/>
                </mxCell>
                <mxCell id="68" value="id" style="text;strokeColor=none;fillColor=none;align=left;verticalAlign=top;spacingLeft=4;spacingRight=4;overflow=hidden;rotatable=0;points=[[0,0.5],[1,0.5]];portConstraint=eastwest;fontColor=#FF9999;fontStyle=1" parent="67" vertex="1">
                    <mxGeometry y="31" width="92.73" height="26" as="geometry"/>
                </mxCell>
                <mxCell id="246" value="name" style="text;strokeColor=none;fillColor=none;align=left;verticalAlign=top;spacingLeft=4;spacingRight=4;overflow=hidden;rotatable=0;points=[[0,0.5],[1,0.5]];portConstraint=eastwest;" vertex="1" parent="67">
                    <mxGeometry y="57" width="92.73" height="26" as="geometry"/>
                </mxCell>
                <mxCell id="194" value="publications   N" style="text;fillColor=#d80073;align=left;verticalAlign=top;spacingLeft=4;spacingRight=4;overflow=hidden;rotatable=0;points=[[0,0.5],[1,0.5]];portConstraint=eastwest;fontColor=#ffffff;strokeColor=#FFFFFF;" parent="67" vertex="1">
                    <mxGeometry y="83" width="92.73" height="26" as="geometry"/>
                </mxCell>
                <mxCell id="74" style="edgeStyle=orthogonalEdgeStyle;rounded=0;orthogonalLoop=1;jettySize=auto;html=1;exitX=1;exitY=0.5;exitDx=0;exitDy=0;entryX=0;entryY=0.5;entryDx=0;entryDy=0;" parent="1" source="168" target="256" edge="1">
                    <mxGeometry relative="1" as="geometry">
                        <mxPoint x="597.2699999999979" y="545.25" as="sourcePoint"/>
                    </mxGeometry>
                </mxCell>
                <mxCell id="75" style="edgeStyle=orthogonalEdgeStyle;rounded=0;orthogonalLoop=1;jettySize=auto;html=1;exitX=0;exitY=0.5;exitDx=0;exitDy=0;" parent="1" source="167" target="244" edge="1">
                    <mxGeometry relative="1" as="geometry">
                        <mxPoint x="507" y="550" as="targetPoint"/>
                        <mxPoint x="520.000000000002" y="545.25" as="sourcePoint"/>
                    </mxGeometry>
                </mxCell>
                <mxCell id="80" style="edgeStyle=orthogonalEdgeStyle;rounded=0;orthogonalLoop=1;jettySize=auto;html=1;" parent="1" source="31" edge="1" target="255">
                    <mxGeometry relative="1" as="geometry">
                        <mxPoint x="663.8699999999999" y="90" as="sourcePoint"/>
                        <mxPoint x="702.73" y="165" as="targetPoint"/>
                    </mxGeometry>
                </mxCell>
                <mxCell id="85" style="edgeStyle=orthogonalEdgeStyle;rounded=0;orthogonalLoop=1;jettySize=auto;html=1;entryX=1;entryY=0.5;entryDx=0;entryDy=0;exitX=0;exitY=0.5;exitDx=0;exitDy=0;" parent="1" source="159" target="242" edge="1">
                    <mxGeometry relative="1" as="geometry">
                        <mxPoint x="510" y="380" as="sourcePoint"/>
                    </mxGeometry>
                </mxCell>
                <mxCell id="86" style="edgeStyle=orthogonalEdgeStyle;rounded=0;orthogonalLoop=1;jettySize=auto;html=1;entryX=0;entryY=0.5;entryDx=0;entryDy=0;exitX=1;exitY=0.5;exitDx=0;exitDy=0;" parent="1" source="158" target="261" edge="1">
                    <mxGeometry relative="1" as="geometry">
                        <mxPoint x="580" y="380" as="sourcePoint"/>
                    </mxGeometry>
                </mxCell>
                <mxCell id="91" style="edgeStyle=orthogonalEdgeStyle;rounded=0;orthogonalLoop=1;jettySize=auto;html=1;" parent="1" source="19" target="252" edge="1">
                    <mxGeometry relative="1" as="geometry">
                        <mxPoint x="355" y="172" as="sourcePoint"/>
                        <mxPoint x="320" y="127" as="targetPoint"/>
                        <Array as="points">
                            <mxPoint x="270" y="351"/>
                        </Array>
                    </mxGeometry>
                </mxCell>
                <mxCell id="95" style="edgeStyle=orthogonalEdgeStyle;rounded=0;orthogonalLoop=1;jettySize=auto;html=1;" parent="1" source="5" target="254" edge="1">
                    <mxGeometry relative="1" as="geometry">
                        <mxPoint x="562.27" y="220" as="sourcePoint"/>
                        <mxPoint x="510" y="210" as="targetPoint"/>
                        <Array as="points">
                            <mxPoint x="500" y="326"/>
                        </Array>
                    </mxGeometry>
                </mxCell>
                <mxCell id="155" value="1" style="text;html=1;align=center;verticalAlign=middle;resizable=0;points=[];autosize=1;" parent="1" vertex="1">
                    <mxGeometry x="240" y="910" width="20" height="20" as="geometry"/>
                </mxCell>
                <mxCell id="157" value="publication_editor" style="swimlane;fontStyle=0;childLayout=stackLayout;horizontal=1;startSize=26;horizontalStack=0;resizeParent=1;resizeParentMax=0;resizeLast=0;collapsible=1;marginBottom=0;fontColor=#ffffff;strokeColor=#FFFFFF;fillColor=none;" parent="1" vertex="1">
                    <mxGeometry x="516.37" y="430" width="113.63" height="78" as="geometry"/>
                </mxCell>
                <mxCell id="158" value="editor                  1" style="text;fillColor=#60a917;align=left;verticalAlign=top;spacingLeft=4;spacingRight=4;overflow=hidden;rotatable=0;points=[[0,0.5],[1,0.5]];portConstraint=eastwest;fontColor=#ffffff;strokeColor=#FFFFFF;" parent="157" vertex="1">
                    <mxGeometry y="26" width="113.63" height="26" as="geometry"/>
                </mxCell>
                <mxCell id="159" value="publication          1" style="text;fillColor=#60a917;align=left;verticalAlign=top;spacingLeft=4;spacingRight=4;overflow=hidden;rotatable=0;points=[[0,0.5],[1,0.5]];portConstraint=eastwest;fontColor=#ffffff;strokeColor=#FFFFFF;" parent="157" vertex="1">
                    <mxGeometry y="52" width="113.63" height="26" as="geometry"/>
                </mxCell>
                <mxCell id="166" value="borrow" style="swimlane;fontStyle=0;childLayout=stackLayout;horizontal=1;startSize=26;fillColor=#1ba1e2;horizontalStack=0;resizeParent=1;resizeParentMax=0;resizeLast=0;collapsible=1;marginBottom=0;fontColor=#ffffff;strokeColor=#FFFFFF;" parent="1" vertex="1">
                    <mxGeometry x="516.37" y="653" width="112.73" height="196" as="geometry"/>
                </mxCell>
                <mxCell id="173" value="id" style="text;strokeColor=none;fillColor=none;align=left;verticalAlign=top;spacingLeft=4;spacingRight=4;overflow=hidden;rotatable=0;points=[[0,0.5],[1,0.5]];portConstraint=eastwest;fontColor=#FF6666;fontStyle=1" parent="166" vertex="1">
                    <mxGeometry y="26" width="112.73" height="22" as="geometry"/>
                </mxCell>
                <mxCell id="263" value="reservation_date" style="text;strokeColor=none;fillColor=none;align=left;verticalAlign=top;spacingLeft=4;spacingRight=4;overflow=hidden;rotatable=0;points=[[0,0.5],[1,0.5]];portConstraint=eastwest;" vertex="1" parent="166">
                    <mxGeometry y="48" width="112.73" height="22" as="geometry"/>
                </mxCell>
                <mxCell id="172" value="borrowed_date" style="text;strokeColor=none;fillColor=none;align=left;verticalAlign=top;spacingLeft=4;spacingRight=4;overflow=hidden;rotatable=0;points=[[0,0.5],[1,0.5]];portConstraint=eastwest;" parent="166" vertex="1">
                    <mxGeometry y="70" width="112.73" height="26" as="geometry"/>
                </mxCell>
                <mxCell id="167" value="publication          1" style="text;fillColor=#60a917;align=left;verticalAlign=top;spacingLeft=4;spacingRight=4;overflow=hidden;rotatable=0;points=[[0,0.5],[1,0.5]];portConstraint=eastwest;fontColor=#ffffff;strokeColor=#FFFFFF;" parent="166" vertex="1">
                    <mxGeometry y="96" width="112.73" height="22" as="geometry"/>
                </mxCell>
                <mxCell id="168" value="user                    1" style="text;fillColor=#60a917;align=left;verticalAlign=top;spacingLeft=4;spacingRight=4;overflow=hidden;rotatable=0;points=[[0,0.5],[1,0.5]];portConstraint=eastwest;fontColor=#ffffff;strokeColor=#FFFFFF;" parent="166" vertex="1">
                    <mxGeometry y="118" width="112.73" height="26" as="geometry"/>
                </mxCell>
                <mxCell id="179" value="time_limit" style="text;strokeColor=none;fillColor=none;align=left;verticalAlign=top;spacingLeft=4;spacingRight=4;overflow=hidden;rotatable=0;points=[[0,0.5],[1,0.5]];portConstraint=eastwest;" parent="166" vertex="1">
                    <mxGeometry y="144" width="112.73" height="26" as="geometry"/>
                </mxCell>
                <mxCell id="174" value="comment" style="text;strokeColor=none;fillColor=none;align=left;verticalAlign=top;spacingLeft=4;spacingRight=4;overflow=hidden;rotatable=0;points=[[0,0.5],[1,0.5]];portConstraint=eastwest;" parent="166" vertex="1">
                    <mxGeometry y="170" width="112.73" height="26" as="geometry"/>
                </mxCell>
                <mxCell id="176" value="1" style="text;html=1;align=center;verticalAlign=middle;resizable=0;points=[];autosize=1;" parent="1" vertex="1">
                    <mxGeometry x="620" y="648" width="20" height="20" as="geometry"/>
                </mxCell>
                <mxCell id="180" value="language" style="swimlane;fontStyle=0;childLayout=stackLayout;horizontal=1;startSize=26;fillColor=#1ba1e2;horizontalStack=0;resizeParent=1;resizeParentMax=0;resizeLast=0;collapsible=1;marginBottom=0;fontColor=#ffffff;strokeColor=#FFFFFF;" parent="1" vertex="1">
                    <mxGeometry x="560" y="290" width="93.63" height="104" as="geometry"/>
                </mxCell>
                <mxCell id="181" value="id" style="text;strokeColor=none;fillColor=none;align=left;verticalAlign=top;spacingLeft=4;spacingRight=4;overflow=hidden;rotatable=0;points=[[0,0.5],[1,0.5]];portConstraint=eastwest;fontColor=#FF9999;fontStyle=1" parent="180" vertex="1">
                    <mxGeometry y="26" width="93.63" height="26" as="geometry"/>
                </mxCell>
                <mxCell id="253" value="publications N" style="text;fillColor=#d80073;align=left;verticalAlign=top;spacingLeft=4;spacingRight=4;overflow=hidden;rotatable=0;points=[[0,0.5],[1,0.5]];portConstraint=eastwest;fontColor=#ffffff;strokeColor=#FFFFFF;" vertex="1" parent="180">
                    <mxGeometry y="52" width="93.63" height="26" as="geometry"/>
                </mxCell>
                <mxCell id="182" value="name" style="text;strokeColor=none;fillColor=none;align=left;verticalAlign=top;spacingLeft=4;spacingRight=4;overflow=hidden;rotatable=0;points=[[0,0.5],[1,0.5]];portConstraint=eastwest;fontColor=#FFFFFF;" parent="180" vertex="1">
                    <mxGeometry y="78" width="93.63" height="26" as="geometry"/>
                </mxCell>
                <mxCell id="183" style="edgeStyle=orthogonalEdgeStyle;rounded=0;orthogonalLoop=1;jettySize=auto;html=1;entryX=0;entryY=0.385;entryDx=0;entryDy=0;fontColor=#FF9999;entryPerimeter=0;" parent="1" source="13" target="253" edge="1">
                    <mxGeometry relative="1" as="geometry"/>
                </mxCell>
                <mxCell id="209" style="edgeStyle=orthogonalEdgeStyle;rounded=0;orthogonalLoop=1;jettySize=auto;html=1;fontColor=#FFFF33;exitX=0;exitY=0.5;exitDx=0;exitDy=0;" parent="1" source="206" target="249" edge="1">
                    <mxGeometry relative="1" as="geometry">
                        <Array as="points">
                            <mxPoint x="40" y="933"/>
                        </Array>
                    </mxGeometry>
                </mxCell>
                <mxCell id="205" value="publication_author" style="swimlane;fontStyle=0;childLayout=stackLayout;horizontal=1;startSize=26;horizontalStack=0;resizeParent=1;resizeParentMax=0;resizeLast=0;collapsible=1;marginBottom=0;fontColor=#ffffff;strokeColor=#FFFFFF;fillColor=none;" parent="1" vertex="1">
                    <mxGeometry x="140" y="868" width="110" height="78" as="geometry"/>
                </mxCell>
                <mxCell id="207" value="publication         1" style="text;fillColor=#60a917;align=left;verticalAlign=top;spacingLeft=4;spacingRight=4;overflow=hidden;rotatable=0;points=[[0,0.5],[1,0.5]];portConstraint=eastwest;fontColor=#ffffff;fontStyle=0;strokeColor=#FFFFFF;" parent="205" vertex="1">
                    <mxGeometry y="26" width="110" height="26" as="geometry"/>
                </mxCell>
                <mxCell id="206" value="author                1" style="text;fillColor=#60a917;align=left;verticalAlign=top;spacingLeft=4;spacingRight=4;overflow=hidden;rotatable=0;points=[[0,0.5],[1,0.5]];portConstraint=eastwest;fontStyle=0;fontColor=#ffffff;strokeColor=#FFFFFF;" parent="205" vertex="1">
                    <mxGeometry y="52" width="110" height="26" as="geometry"/>
                </mxCell>
                <mxCell id="212" style="edgeStyle=orthogonalEdgeStyle;rounded=0;orthogonalLoop=1;jettySize=auto;html=1;entryX=0;entryY=0.5;entryDx=0;entryDy=0;fontColor=#FFFF33;" parent="1" source="207" target="243" edge="1">
                    <mxGeometry relative="1" as="geometry">
                        <mxPoint x="260" y="737" as="sourcePoint"/>
                        <mxPoint x="289.5999999999999" y="613.74" as="targetPoint"/>
                    </mxGeometry>
                </mxCell>
                <mxCell id="226" style="edgeStyle=orthogonalEdgeStyle;rounded=0;orthogonalLoop=1;jettySize=auto;html=1;entryX=0;entryY=0.5;entryDx=0;entryDy=0;" parent="1" source="224" target="238" edge="1">
                    <mxGeometry relative="1" as="geometry"/>
                </mxCell>
                <mxCell id="247" style="edgeStyle=orthogonalEdgeStyle;rounded=0;orthogonalLoop=1;jettySize=auto;html=1;fontColor=#FFFFFF;exitX=0;exitY=0.5;exitDx=0;exitDy=0;" edge="1" parent="1" source="225" target="194">
                    <mxGeometry relative="1" as="geometry">
                        <Array as="points">
                            <mxPoint x="40" y="712"/>
                        </Array>
                    </mxGeometry>
                </mxCell>
                <mxCell id="221" value="keywordgeo_publication" style="swimlane;fontStyle=0;childLayout=stackLayout;horizontal=1;startSize=31;horizontalStack=0;resizeParent=1;resizeParentMax=0;resizeLast=0;collapsible=1;marginBottom=0;fontColor=#ffffff;strokeColor=#FFFFFF;fillColor=none;" parent="1" vertex="1">
                    <mxGeometry x="110" y="668" width="140" height="83" as="geometry"/>
                </mxCell>
                <mxCell id="225" value="kewordgeo                 1" style="text;fillColor=#60a917;align=left;verticalAlign=top;spacingLeft=4;spacingRight=4;overflow=hidden;rotatable=0;points=[[0,0.5],[1,0.5]];portConstraint=eastwest;fontColor=#ffffff;fontStyle=0;strokeColor=#FFFFFF;" parent="221" vertex="1">
                    <mxGeometry y="31" width="140" height="26" as="geometry"/>
                </mxCell>
                <mxCell id="224" value="publication                  1" style="text;fillColor=#60a917;align=left;verticalAlign=top;spacingLeft=4;spacingRight=4;overflow=hidden;rotatable=0;points=[[0,0.5],[1,0.5]];portConstraint=eastwest;fontColor=#ffffff;fontStyle=0;strokeColor=#FFFFFF;" parent="221" vertex="1">
                    <mxGeometry y="57" width="140" height="26" as="geometry"/>
                </mxCell>
                <mxCell id="233" style="edgeStyle=orthogonalEdgeStyle;rounded=0;orthogonalLoop=1;jettySize=auto;html=1;exitX=0;exitY=0.5;exitDx=0;exitDy=0;" parent="1" source="229" edge="1" target="248">
                    <mxGeometry relative="1" as="geometry">
                        <mxPoint x="30" y="320" as="targetPoint"/>
                        <Array as="points">
                            <mxPoint x="40" y="453"/>
                        </Array>
                    </mxGeometry>
                </mxCell>
                <mxCell id="229" value="keywordref_publication" style="swimlane;fontStyle=0;childLayout=stackLayout;horizontal=1;startSize=31;horizontalStack=0;resizeParent=1;resizeParentMax=0;resizeLast=0;collapsible=1;marginBottom=0;fontColor=#ffffff;strokeColor=#FFFFFF;fillColor=none;" parent="1" vertex="1">
                    <mxGeometry x="120" y="409" width="140" height="89" as="geometry"/>
                </mxCell>
                <mxCell id="230" value="kewordref                    1" style="text;fillColor=#60a917;align=left;verticalAlign=top;spacingLeft=4;spacingRight=4;overflow=hidden;rotatable=0;points=[[0,0.5],[1,0.5]];portConstraint=eastwest;fontColor=#ffffff;fontStyle=0;strokeColor=#FFFFFF;" parent="229" vertex="1">
                    <mxGeometry y="31" width="140" height="32" as="geometry"/>
                </mxCell>
                <mxCell id="231" value="publication                   1" style="text;fillColor=#60a917;align=left;verticalAlign=top;spacingLeft=4;spacingRight=4;overflow=hidden;rotatable=0;points=[[0,0.5],[1,0.5]];portConstraint=eastwest;fontColor=#ffffff;fontStyle=0;strokeColor=#FFFFFF;" parent="229" vertex="1">
                    <mxGeometry y="63" width="140" height="26" as="geometry"/>
                </mxCell>
                <mxCell id="235" style="edgeStyle=orthogonalEdgeStyle;rounded=0;orthogonalLoop=1;jettySize=auto;html=1;entryX=0;entryY=0.5;entryDx=0;entryDy=0;" parent="1" source="231" target="245" edge="1">
                    <mxGeometry relative="1" as="geometry"/>
                </mxCell>
                <mxCell id="251" style="edgeStyle=orthogonalEdgeStyle;rounded=0;orthogonalLoop=1;jettySize=auto;html=1;fontColor=#FFFFFF;exitX=0;exitY=0.5;exitDx=0;exitDy=0;" edge="1" parent="1" source="4" target="250">
                    <mxGeometry relative="1" as="geometry">
                        <mxPoint x="270" y="352" as="targetPoint"/>
                    </mxGeometry>
                </mxCell>
                <mxCell id="260" style="edgeStyle=orthogonalEdgeStyle;rounded=0;orthogonalLoop=1;jettySize=auto;html=1;fontColor=#FFFFFF;" edge="1" parent="1" source="163" target="259">
                    <mxGeometry relative="1" as="geometry"/>
                </mxCell>
            </root>
        </mxGraphModel>
    </diagram>
</mxfile>